<?xml version="1.0" encoding="UTF-8"?>
<svg version="1.1" viewBox="0 0 25 22" xmlns="http://www.w3.org/2000/svg" xmlns:xlink="http://www.w3.org/1999/xlink">
<g transform="translate(-5180 -696)">
<use transform="translate(5201.5 697.47)" fill="#FFFFFF" xlink:href="#m"/>
<use transform="translate(5188.2 700.86)" fill="#FF9100" xlink:href="#j"/>
<use transform="translate(5188.2 700.86)" fill="#FFDD00" xlink:href="#i"/>
<use transform="translate(5186.8 699.41)" fill="#FFFFFF" xlink:href="#h"/>
<use transform="translate(5186.8 699.41)" xlink:href="#g"/>
<use transform="translate(5188.2 697.06)" fill="#FFFFFF" xlink:href="#f"/>
<use transform="translate(5188.2 697.06)" fill="#050505" xlink:href="#e"/>
<use transform="translate(5187.3 700.86)" xlink:href="#d"/>
<use transform="translate(5187.1 705.3)" fill="#FFFFFF" xlink:href="#c"/>
<use transform="translate(5187.1 705.3)" xlink:href="#b"/>
<g opacity=".2">
<mask id="n">
<use transform="translate(5180.6 701.17)" fill="white" xlink:href="#l"/>
</mask>
<g mask="url(#n)">
<use transform="translate(5180.6 701.17)" fill="#FFFFFF" xlink:href="#k"/>
</g>
</g>
<g opacity=".2">
<use transform="translate(5200.8 707.69)" fill="#FFFFFF" xlink:href="#a"/>
</g>
<use transform="translate(5184.6 712.7)" fill="#FFFFFF" xlink:href="#a"/>
</g>
<defs>
<path id="m" d="m1.12 0.17c-0.1 0.1-0.16 0.24-0.16 0.39v0.4h-0.4c-0.31 0-0.56 0.25-0.56 0.56s0.25 0.56 0.56 0.56h0.4v0.41c0 0.3 0.25 0.56 0.56 0.56s0.56-0.26 0.56-0.56v-0.41h0.41c0.3 0 0.56-0.25 0.56-0.56s-0.26-0.56-0.56-0.56h-0.41v-0.4c0-0.31-0.25-0.56-0.56-0.56-0.16 0-0.3 0.07-0.4 0.17z" fill-rule="evenodd"/>
<path id="j" d="m5.03 0.03l-5.03-0.03 2.47 15.73h0.54 4.94 0.54l2.47-15.73-5.93 0.03z" fill-rule="evenodd"/>
<path id="i" d="m5.03 0.03l-5.03-0.03 2.47 15.73h0.54 3.68 0.54l2.47-15.73-4.67 0.03z" fill-rule="evenodd"/>
<path id="h" d="m0 1.45h12.98v-1.45h-12.98v1.45z" fill-rule="evenodd"/>
<path id="g" d="m0 1.45h-0.44v0.44h0.44v-0.44zm12.98 0v0.44h0.44v-0.44h-0.44zm0-1.45h0.44v-0.44h-0.44v0.44zm-12.98 0v-0.44h-0.44v0.44h0.44zm0 1.89h12.98v-0.88h-12.98v0.88zm13.42-0.44v-1.45h-0.88v1.45h0.88zm-0.44-1.89h-12.98v0.88h12.98v-0.88zm-13.42 0.44v1.45h0.88v-1.45h-0.88z"/>
<path id="f" d="m8.98 0h-3.1-1.84-3.1l-0.94 2.18h4.04 1.84 4.04l-0.94-2.18z" fill-rule="evenodd"/>
<path id="e" d="m8.98 0l0.41-0.18-0.12-0.26h-0.29v0.44zm-8.04 0v-0.44h-0.29l-0.11 0.26 0.4 0.18zm-0.94 2.18l-0.4-0.18-0.27 0.62h0.67v-0.44zm9.92 0v0.44h0.68l-0.27-0.62-0.41 0.18zm-0.94-2.62h-3.1v0.88h3.1v-0.88zm-3.1 0h-1.84v0.88h1.84v-0.88zm-1.84 0h-3.1v0.88h3.1v-0.88zm-3.5 0.26l-0.94 2.18 0.8 0.35 0.95-2.17-0.81-0.36zm-0.54 2.8h4.04v-0.88h-4.04v0.88zm4.04 0h1.84v-0.88h-1.84v0.88zm1.84 0h4.04v-0.88h-4.04v0.88zm4.45-0.62l-0.94-2.18-0.81 0.36 0.94 2.17 0.81-0.35z"/>
<path id="d" d="m5.93 0.03v0.44-0.44zm-5.93-0.03v-0.44h-0.52l0.09 0.51 0.43-0.07zm2.47 15.73l-0.43 0.06 0.05 0.38h0.38v-0.44zm6.92 0v0.44h0.37l0.06-0.38-0.43-0.06zm2.47-15.73l0.43 0.07 0.08-0.51h-0.52l0.01 0.44zm-5.93-0.41l-5.93-0.03v0.88l5.93 0.03v-0.88zm-6.36 0.48l2.47 15.72 0.86-0.13-2.47-15.73-0.86 0.14zm2.9 16.1h0.54v-0.88h-0.54v0.88zm0.54 0h5.84v-0.88h-5.84v0.88zm5.84 0h0.54v-0.88h-0.54v0.88zm0.97-0.38l2.47-15.72-0.87-0.14-2.47 15.73 0.87 0.13zm2.03-16.23l-5.92 0.03v0.88l5.93-0.03-0.01-0.88z"/>
<path id="c" d="m12.26 0h-5.92-0.42-5.92l1.11 6.25 5.02-0.05 5.02 0.05 1.11-6.25z" fill-rule="evenodd"/>
<path id="b" d="m12.26 0l0.43 0.08 0.1-0.52h-0.53v0.44zm-12.26 0v-0.44h-0.53l0.1 0.52 0.43-0.08zm1.11 6.25l-0.44 0.08 0.07 0.37 0.37-0.01v-0.44zm5.02-0.05v-0.44 0.44zm5.02 0.05v0.44l0.37 0.01 0.07-0.37-0.44-0.08zm1.11-6.69h-5.92v0.88h5.92v-0.88zm-5.92 0h-0.42v0.88h0.42v-0.88zm-0.42 0h-5.92v0.88h5.92v-0.88zm-6.35 0.52l1.1 6.25 0.87-0.15-1.11-6.26-0.86 0.16zm1.54 6.61l5.02-0.05v-0.88l-5.03 0.05 0.01 0.88zm5.02-0.05l5.02 0.05 0.01-0.88-5.03-0.05v0.88zm5.46-0.31l1.1-6.25-0.86-0.16-1.11 6.26 0.87 0.15z"/>
<path id="l" d="m1.85 3.7c1.01 0 1.84-0.83 1.84-1.85s-0.83-1.85-1.84-1.85c-1.02 0-1.85 0.83-1.85 1.85s0.83 1.85 1.85 1.85z" fill-rule="evenodd"/>
<path id="k" d="m1.85 5.12c1.8 0 3.26-1.47 3.26-3.27h-2.84c0 0.24-0.19 0.43-0.42 0.43v2.84zm3.26-3.27c0-1.8-1.46-3.27-3.26-3.27v2.84c0.23 0 0.42 0.19 0.42 0.43h2.84zm-3.26-3.27c-1.81 0-3.27 1.47-3.27 3.27h2.84c0-0.24 0.19-0.43 0.43-0.43v-2.84zm-3.27 3.27c0 1.8 1.46 3.27 3.27 3.27v-2.84c-0.24 0-0.43-0.19-0.43-0.43h-2.84z"/>
<path id="a" d="m0.87 1.74c0.48 0 0.87-0.39 0.87-0.87s-0.39-0.87-0.87-0.87-0.87 0.39-0.87 0.87 0.39 0.87 0.87 0.87z" fill-rule="evenodd"/>
</defs>
</svg>
